Coordinates
version=1
nRows=26
nColumns=24
inDegrees=yes

Units are S.I. units (second, meters, Newtons, ...)
Angles are in degrees.

endheader
time	pelvis_tilt	pelvis_list	pelvis_rotation	pelvis_tx	pelvis_ty	pelvis_tz	hip_flexion_r	hip_adduction_r	hip_rotation_r	knee_angle_r	ankle_angle_r	subtalar_angle_r	mtp_angle_r	hip_flexion_l	hip_adduction_l	hip_rotation_l	knee_angle_l	ankle_angle_l	subtalar_angle_l	mtp_angle_l	lumbar_extension	lumbar_bending	lumbar_rotation
      3.74500000	    -15.56575509	     -6.73436072	      0.55053654	     -0.65058759	     -0.01019192	     -0.02363596	     23.36550657	      8.93024204	     -3.42446957	     -8.88941243	     -7.79991728	     -0.11710851	      6.40197242	     22.47152676	    -13.85428967	    -12.37038861	    -58.68705955	    -25.29857680	      7.01004824	     26.23586817	     11.54576541	      9.43297957	     -2.83894286
      3.75000000	    -15.45669388	     -6.58393864	      0.44184804	     -0.64594191	     -0.00950459	     -0.02307593	     22.73174792	      8.89259070	     -3.21299785	     -8.45803746	     -7.85759265	     -0.27308001	      7.11351970	     22.98437018	    -13.79904260	    -12.40070942	    -59.35294734	    -24.63522741	      6.41379544	     25.62626131	     11.43891053	      9.29265388	     -2.60457725
      3.75500000	    -15.32781168	     -6.51404625	      0.39681668	     -0.64137081	     -0.00883410	     -0.02256053	     22.09115451	      8.91526267	     -3.11927228	     -8.06332659	     -7.78367130	     -0.32369976	      7.17468541	     23.51481789	    -13.80407400	    -12.31833452	    -59.94041178	    -24.18225197	      5.86555783	     25.55225117	     11.31177230	      9.21935091	     -2.39653145
      3.76000000	    -15.16502837	     -6.37594199	      0.34724790	     -0.63676739	     -0.00810431	     -0.02207093	     21.39461644	      8.87063251	     -2.91506055	     -7.64346178	     -7.71562727	     -0.45092664	      7.22339492	     23.96879442	    -13.71821855	    -12.26658495	    -60.43700885	    -23.69496482	      5.45844849	     25.36495487	     11.15429488	      9.07354783	     -2.21503803
      3.76500000	    -14.97716625	     -6.23606565	      0.27028641	     -0.63215851	     -0.00737146	     -0.02153281	     20.66543955	      8.83621495	     -2.66963551	     -7.21602206	     -7.66663625	     -0.61313658	      7.25368987	     24.36711385	    -13.63922914	    -12.23114100	    -60.86341852	    -23.15438791	      5.32537661	     25.22867277	     10.96839632	      8.92990345	     -1.99679374
      3.77000000	    -14.84058361	     -6.07799858	      0.19520345	     -0.62757779	     -0.00671796	     -0.02099527	     20.00678130	      8.77409759	     -2.46655255	     -6.81601013	     -7.58210845	     -0.71263521	      7.25554767	     24.81126022	    -13.52429307	    -12.17385619	    -61.21210023	    -22.65042805	      5.32780342	     25.28354973	     10.84136911	      8.76488443	     -1.78724442
      3.77500000	    -14.70743906	     -5.91951749	      0.11438111	     -0.62302431	     -0.00609032	     -0.02047112	     19.35854159	      8.70907036	     -2.27266117	     -6.42454747	     -7.49724466	     -0.80639054	      7.23367395	     25.24590980	    -13.40097487	    -12.12741279	    -61.49226289	    -22.15941185	      5.38916988	     25.41563659	     10.71719656	      8.59879359	     -1.57541286
      3.78000000	    -14.58121518	     -5.74196393	      0.03497555	     -0.61849030	     -0.00548696	     -0.01994127	     18.72455531	      8.62021229	     -2.07355253	     -6.04552695	     -7.40158346	     -0.89942480	      7.19874453	     25.67046993	    -13.24548623	    -12.08203629	    -61.69698913	    -21.66344759	      5.55253951	     25.61569746	     10.60267068	      8.41270449	     -1.36583280
      3.78500000	    -14.44536365	     -5.55423044	     -0.05148740	     -0.61397171	     -0.00488939	     -0.01940229	     18.08628392	      8.52072390	     -1.85780759	     -5.67718453	     -7.30632490	     -1.01118493	      7.14637536	     26.06307650	    -13.07305755	    -12.04608577	    -61.82820604	    -21.14751867	      5.82557465	     25.86905980	     10.47770953	      8.21596670	     -1.14934155
      3.79000000	    -14.26088646	     -5.38564283	     -0.16362539	     -0.60949916	     -0.00425435	     -0.01882113	     17.39769690	      8.45033251	     -1.58778120	     -5.30763992	     -7.24864171	     -1.18099956	      7.03623862	     26.38029522	    -12.92800438	    -12.03053293	    -61.89332691	    -20.59434413	      6.19170103	     26.15490127	     10.28710904	      8.04293603	     -0.89801772
      3.79500000	    -14.18988544	     -5.14667264	     -0.23472540	     -0.60503090	     -0.00375442	     -0.01831254	     16.86193779	      8.27750919	     -1.40356852	     -4.99351872	     -7.09519826	     -1.23167573	      6.99804782	     26.82006742	    -12.66454913	    -11.99421687	    -61.88874407	    -20.10060328	      6.50137250	     26.43090524	     10.23851573	      7.77983261	     -0.72435530
      3.80000000	    -14.01834422	     -4.94467506	     -0.37041442	     -0.60063667	     -0.00317295	     -0.01767945	     16.23175021	      8.17034939	     -1.15305205	     -4.69821010	     -7.00815176	     -1.35914314	      6.90202030	     27.11004877	    -12.48044870	    -12.00761828	    -61.81686504	    -19.49475556	      7.03931145	     26.79404971	     10.05604858	      7.57117275	     -0.44813198
      3.80500000	    -13.88396314	     -4.71166624	     -0.48425946	     -0.59622782	     -0.00264508	     -0.01709208	     15.65149166	      8.01340068	     -0.90263500	     -4.42164341	     -6.87602537	     -1.45528088	      6.82167494	     27.43386193	    -12.23972088	    -12.02001199	    -61.68554490	    -18.93449749	      7.51357659	     27.08888062	      9.92684747	      7.32189954	     -0.21085797
      3.81000000	    -13.75545244	     -4.47921713	     -0.61126297	     -0.59184299	     -0.00214798	     -0.01650067	     15.09504063	      7.85286220	     -0.64704532	     -4.17279960	     -6.73525348	     -1.51931324	      6.75594482	     27.74999047	    -12.00088489	    -12.04963997	    -61.50275558	    -18.36772767	      7.99524485	     27.34912118	      9.80442506	      7.07645722	      0.02934597
      3.81500000	    -13.64502712	     -4.23154657	     -0.74403358	     -0.58749952	     -0.00170693	     -0.01587758	     14.59342673	      7.67659779	     -0.42905077	     -3.98272376	     -6.57170071	     -1.56853443	      6.72068495	     28.07230556	    -11.74403270	    -12.09570043	    -61.26799098	    -17.78162605	      8.45134894	     27.56938050	      9.69822323	      6.80947984	      0.27298560
      3.82000000	    -13.52249044	     -3.99581573	     -0.89072307	     -0.58316174	     -0.00128519	     -0.01526633	     14.08506527	      7.50717461	     -0.17294369	     -3.80124944	     -6.40247558	     -1.59431615	      6.69961504	     28.36941270	    -11.50512537	    -12.16217346	    -60.99303752	    -17.19589581	      8.89572016	     27.71099334	      9.58067466	      6.55958739	      0.53082617
      3.82500000	    -13.42626564	     -3.74843927	     -1.03859829	     -0.57889028	     -0.00092652	     -0.01461943	     13.64747742	      7.32678436	      0.03205216	     -3.68831941	     -6.21377261	     -1.61402839	      6.70401040	     28.68743145	    -11.25285059	    -12.24310383	    -60.67059687	    -16.60626000	      9.26478637	     27.80333081	      9.48541029	      6.28842219	      0.77896726
      3.83000000	    -13.32452749	     -3.50919352	     -1.19997962	     -0.57462346	     -0.00060160	     -0.01397685	     13.21660699	      7.15121736	      0.26072229	     -3.59668984	     -6.01151452	     -1.61372264	      6.72281267	     28.98609752	    -11.01486554	    -12.34468631	    -60.30920874	    -16.01519744	      9.59218974	     27.81196744	      9.38642667	      6.03089037	      1.04490860
      3.83500000	    -13.20844496	     -3.28394635	     -1.37864094	     -0.57035304	     -0.00030041	     -0.01333658	     12.77714665	      6.98649348	      0.52872397	     -3.51742103	     -5.79747437	     -1.59296259	      6.74579652	     29.25631235	    -10.79914655	    -12.46873428	    -59.91692424	    -15.41491106	      9.86530182	     27.68844114	      9.27464659	      5.79401153	      1.32942876
      3.84000000	    -13.16403296	     -3.05841028	     -1.49618644	     -0.56609052	     -0.00011966	     -0.01272668	     12.44244941	      6.81004201	      0.70435011	     -3.48328807	     -5.55472211	     -1.59290113	      6.78081274	     29.61627604	    -10.54920247	    -12.53810406	    -59.47478465	    -14.88597783	      9.99219211	     27.63663793	      9.25418988	      5.52800797	      1.51313889
      3.84500000	    -13.03015700	     -2.84037691	     -1.73452720	     -0.56192227	      0.00013690	     -0.01203786	     12.03318454	      6.65883821	      1.00133996	     -3.48407360	     -5.32209508	     -1.53200753	      6.79981923	     29.83137198	    -10.37175879	    -12.74550373	    -59.00960045	    -14.24598582	     10.13643195	     27.27922838	      9.10448197	      5.31041952	      1.86988644
      3.85000000	    -12.98656941	     -2.62839133	     -1.85831342	     -0.55769520	      0.00025798	     -0.01142319	     11.73081237	      6.49367365	      1.17589340	     -3.50236089	     -5.06582534	     -1.53573048	      6.82129326	     30.16581359	    -10.13789162	    -12.83390437	    -58.48458637	    -13.71683410	     10.15450723	     27.08700605	      9.08376837	      5.05610011	      2.04663703
      3.85500000	    -12.87440804	     -2.43448081	     -2.08312651	     -0.55356921	      0.00041684	     -0.01077794	     11.36620125	      6.35493096	      1.47012978	     -3.53613686	     -4.80174952	     -1.45843792	      6.80971153	     30.39590800	     -9.97384339	    -13.03772113	    -57.95515945	    -13.10369035	     10.11541247	     26.57603385	      8.95822519	      4.85699416	      2.38345654
      3.86000000	    -12.80150863	     -2.24729018	     -2.24823046	     -0.54940244	      0.00051398	     -0.01017873	     11.04793773	      6.21205599	      1.70297028	     -3.57866994	     -4.53264723	     -1.41996307	      6.76982347	     30.66655281	     -9.78191582	    -13.17821541	    -57.37017994	    -12.52836114	     10.03154449	     26.10181912	      8.89455092	      4.64394845	      2.61145891
      3.86500000	    -12.73887769	     -2.07373002	     -2.41067111	     -0.54525211	      0.00056751	     -0.00958432	     10.74622858	      6.08091222	      1.92949526	     -3.62950361	     -4.25515805	     -1.37464813	      6.71959430	     30.93924613	     -9.60391723	    -13.32171814	    -56.74617519	    -11.98422490	      9.87665297	     25.63395985	      8.84100294	      4.44194081	      2.83944544
      3.87000000	    -12.67741912	     -1.90880471	     -2.56724304	     -0.54111128	      0.00059536	     -0.00900158	     10.44714382	      5.95501168	      2.15132517	     -3.68123053	     -3.97426750	     -1.32706933	      6.65651469	     31.20047128	     -9.43159739	    -13.46885893	    -56.08059673	    -11.45960434	      9.66656809	     25.13429851	      8.78957990	      4.24580447	      3.06215359
